<svg xmlns="http://www.w3.org/2000/svg" width="1900" height="1250" viewBox="0 0 1900 1250"><defs><marker id="o" markerWidth="10" markerHeight="10" refX="9" refY="3" orient="auto"><path d="M0,0 L0,6 L9,3 z" fill="#d97706"/></marker><marker id="r" markerWidth="10" markerHeight="10" refX="9" refY="3" orient="auto"><path d="M0,0 L0,6 L9,3 z" fill="#dc2626"/></marker><marker id="g" markerWidth="10" markerHeight="10" refX="9" refY="3" orient="auto"><path d="M0,0 L0,6 L9,3 z" fill="#16a34a"/></marker><style>text{font-family:Arial,sans-serif;fill:#111827}.t{font-size:28px;font-weight:700}.h{font-size:18px;font-weight:700}.s{font-size:14px}.m{font-family:monospace;font-size:13px}.box{fill:#fff;stroke:#64748b;stroke-width:2}.sp{fill:#fff7ed;stroke:#f59e0b;stroke-width:3}.sec{fill:#fef2f2;stroke:#dc2626;stroke-width:3}.f{fill:none;stroke:#d97706;stroke-width:4;marker-end:url(#o)}.rf{fill:none;stroke:#dc2626;stroke-width:4;marker-end:url(#r)}.gf{fill:none;stroke:#16a34a;stroke-width:4;marker-end:url(#g)}</style></defs><text x="30" y="45" class="t">TGW + Centralized GWLB/GWLBE Inspection VPC — Master Architecture</text><rect x="40" y="120" width="350" height="150" rx="12" class="sp"/><text x="60" y="155" class="h">Spoke A VPC 10.10.0.0/16</text><text x="60" y="185" class="s">App subnet 10.10.10.0/24</text><text x="60" y="212" class="m">RT-A-App: 0.0.0.0/0 → tgw-1</text><text x="60" y="240" class="s">TGW attach subnet 10.10.200.0/28</text><rect x="40" y="330" width="350" height="150" rx="12" class="sp"/><text x="60" y="365" class="h">Spoke B VPC 10.20.0.0/16</text><text x="60" y="395" class="s">App subnet 10.20.10.0/24</text><text x="60" y="422" class="m">RT-B-App: 0.0.0.0/0 → tgw-1</text><text x="60" y="450" class="s">TGW attach subnet 10.20.200.0/28</text><rect x="40" y="555" width="350" height="150" rx="12" fill="#eff6ff" stroke="#2563eb" stroke-width="3"/><text x="60" y="590" class="h">Hybrid attachments</text><text x="60" y="620" class="s">DX Transit VIF → DXGW → TGW</text><text x="60" y="648" class="s">Site-to-Site VPN → TGW</text><text x="60" y="676" class="s">On-prem 172.16.0.0/16</text><rect x="500" y="120" width="430" height="585" rx="12" fill="#fef3c7" stroke="#d97706" stroke-width="3"/><text x="525" y="155" class="h">AWS Transit Gateway tgw-1</text><text x="525" y="195" class="m">TGW-RT-EGRESS / SPOKES</text><text x="525" y="222" class="m">0.0.0.0/0 → att-Inspection</text><text x="525" y="249" class="m">10.20.0.0/16 → att-Inspection</text><text x="525" y="276" class="m">172.16.0.0/16 → att-Inspection</text><text x="525" y="330" class="m">TGW-RT-INSPECTION</text><text x="525" y="357" class="m">10.10.0.0/16 → att-Spoke-A</text><text x="525" y="384" class="m">10.20.0.0/16 → att-Spoke-B</text><text x="525" y="411" class="m">172.16.0.0/16 → att-DXGW / att-VPN</text><text x="525" y="470" class="h">Inspection attachment</text><text x="525" y="500" class="m">ApplianceModeSupport=enable</text><rect x="1010" y="90" width="830" height="1010" rx="14" class="sec"/><text x="1035" y="130" class="h">Inspection VPC 10.255.0.0/16</text><rect x="1050" y="150" width="330" height="145" rx="8" class="box"/><text x="1070" y="182" class="h">AZ-a TGW subnet 10.255.200.0/28</text><text x="1070" y="212" class="m">RT-Insp-TGW-a:</text><text x="1070" y="239" class="m">10.0.0.0/8 → vpce-gwlb-a</text><text x="1070" y="266" class="m">0.0.0.0/0 → vpce-gwlb-a</text><rect x="1450" y="150" width="330" height="155" rx="8" fill="#fff1f2" stroke="#dc2626" stroke-width="2"/><text x="1470" y="182" class="h">AZ-a GWLBE subnet 10.255.100.0/28</text><text x="1470" y="212" class="m">vpce-gwlb-a</text><text x="1470" y="239" class="m">RT-GWLBE-a:</text><text x="1470" y="266" class="m">10.0.0.0/8 → tgw-1</text><text x="1470" y="293" class="m">0.0.0.0/0 → nat-a</text><rect x="1210" y="380" width="330" height="105" rx="8" fill="#fee2e2" stroke="#dc2626" stroke-width="2"/><text x="1240" y="415" class="h">Gateway Load Balancer</text><text x="1240" y="443" class="s">GWLB endpoint service</text><text x="1240" y="468" class="s">GENEVE UDP/6081</text><rect x="1210" y="540" width="330" height="125" rx="8" class="box"/><text x="1240" y="575" class="h">Third-party NGFW fleet</text><text x="1240" y="603" class="s">AZ-a 10.255.10.10</text><text x="1240" y="630" class="s">AZ-b 10.255.20.10</text><text x="1240" y="655" class="s">Stateful inspection / IDS/IPS / TLS</text><rect x="1120" y="760" width="590" height="140" rx="8" fill="#ecfdf5" stroke="#16a34a" stroke-width="2"/><text x="1150" y="795" class="h">Egress tier</text><text x="1150" y="823" class="m">NAT-a 10.255.40.0/24; NAT-b 10.255.41.0/24</text><text x="1150" y="850" class="m">RT-NAT: 0.0.0.0/0 → igw-inspection</text><text x="1150" y="877" class="m">Spoke CIDRs → vpce-gwlb</text><rect x="1270" y="960" width="300" height="90" rx="8" fill="#eef2ff" stroke="#4f46e5" stroke-width="2"/><text x="1320" y="998" class="h">Internet Gateway</text><text x="1325" y="1028" class="s">Inspection/Egress VPC</text><path d="M390 195 H500" class="f"/><path d="M390 405 H500" class="f"/><path d="M390 630 H500" fill="none" stroke="#2563eb" stroke-width="4" marker-end="url(#o)"/><path d="M930 390 H1050" class="f"/><path d="M1380 222 H1450" class="rf"/><path d="M1615 305 V350 H1375 V380" class="rf"/><path d="M1375 485 V540" class="rf"/><path d="M1615 305 V730 H1415 V760" class="gf"/><path d="M1415 900 V960" class="gf"/><text x="945" y="365" class="s">att-Inspection</text><text x="1385" y="205" class="s">route → GWLBE</text></svg>