<svg xmlns="http://www.w3.org/2000/svg" width="1800" height="1000" viewBox="0 0 1800 1000"><defs><marker id="blue" markerWidth="10" markerHeight="10" refX="9" refY="3" orient="auto"><path d="M0,0 L0,6 L9,3 z" fill="#2563eb"/></marker><marker id="orange" markerWidth="10" markerHeight="10" refX="9" refY="3" orient="auto"><path d="M0,0 L0,6 L9,3 z" fill="#ea580c"/></marker><marker id="purple" markerWidth="10" markerHeight="10" refX="9" refY="3" orient="auto"><path d="M0,0 L0,6 L9,3 z" fill="#7e22ce"/></marker><marker id="gold" markerWidth="10" markerHeight="10" refX="9" refY="3" orient="auto"><path d="M0,0 L0,6 L9,3 z" fill="#ca8a04"/></marker><marker id="green" markerWidth="10" markerHeight="10" refX="9" refY="3" orient="auto"><path d="M0,0 L0,6 L9,3 z" fill="#16a34a"/></marker></defs><rect width="1800" height="1000" fill="#ffffff"/><g font-family="Arial,Helvetica,sans-serif"><text x="900" y="62" text-anchor="middle" font-size="30" font-weight="700" fill="#1f2937">AWS Direct Connect Transit VIF — Control Plane and Routing Domains</text><rect x="355" y="100" width="1090" height="70" rx="16" fill="#f3f4f6" stroke="#6b7280" stroke-width="2"/><text x="900" y="143" text-anchor="middle" font-size="20" font-weight="700" fill="#111827">DX = physical transport  |  VIF = VLAN + BGP  |  DXGW = global bridge  |  TGW = regional router</text><rect x="70" y="340" width="220" height="100" rx="18" fill="#dbeafe" stroke="#2563eb" stroke-width="3"/><text x="180" y="382" text-anchor="middle" font-size="21" font-weight="700" fill="#1e3a8a">On-premises Network</text><text x="180" y="414" text-anchor="middle" font-size="19" fill="#1e3a8a">192.168.0.0/16</text><rect x="350" y="340" width="210" height="100" rx="18" fill="#bfdbfe" stroke="#1d4ed8" stroke-width="3"/><text x="455" y="382" text-anchor="middle" font-size="21" font-weight="700" fill="#1e3a8a">Customer Router</text><text x="455" y="414" text-anchor="middle" font-size="19" fill="#1e3a8a">ASN 65020</text><rect x="630" y="330" width="230" height="120" rx="18" fill="#fde68a" stroke="#d97706" stroke-width="3"/><text x="745" y="375" text-anchor="middle" font-size="21" font-weight="700" fill="#92400e">AWS Direct Connect</text><text x="745" y="408" text-anchor="middle" font-size="19" fill="#92400e">Physical Connection</text><rect x="930" y="320" width="220" height="140" rx="18" fill="#fed7aa" stroke="#ea580c" stroke-width="3"/><text x="1040" y="365" text-anchor="middle" font-size="21" font-weight="700" fill="#9a3412">Transit VIF</text><text x="1040" y="399" text-anchor="middle" font-size="19" fill="#9a3412">VLAN 100</text><text x="1040" y="431" text-anchor="middle" font-size="19" fill="#9a3412">BGP adjacency</text><rect x="1220" y="305" width="250" height="170" rx="18" fill="#e9d5ff" stroke="#7e22ce" stroke-width="3"/><text x="1345" y="350" text-anchor="middle" font-size="21" font-weight="700" fill="#581c87">Direct Connect Gateway</text><text x="1345" y="385" text-anchor="middle" font-size="18" fill="#581c87">DXGW ASN 65030</text><text x="1345" y="420" text-anchor="middle" font-size="18" fill="#581c87">Global routing bridge</text><rect x="1510" y="305" width="240" height="170" rx="18" fill="#ddd6fe" stroke="#6d28d9" stroke-width="3"/><text x="1630" y="350" text-anchor="middle" font-size="21" font-weight="700" fill="#4c1d95">Transit Gateway</text><text x="1630" y="385" text-anchor="middle" font-size="18" fill="#4c1d95">TGW ASN 64520</text><text x="1630" y="420" text-anchor="middle" font-size="18" fill="#4c1d95">Regional transit router</text><rect x="1460" y="560" width="330" height="180" rx="18" fill="#fef3c7" stroke="#ca8a04" stroke-width="3"/><text x="1625" y="602" text-anchor="middle" font-size="21" font-weight="700" fill="#713f12">TGW Route Table</text><text x="1625" y="640" text-anchor="middle" font-size="18" fill="#713f12">10.10.0.0/16 → VPC-A</text><text x="1625" y="672" text-anchor="middle" font-size="18" fill="#713f12">10.20.0.0/16 → VPC-B</text><text x="1625" y="704" text-anchor="middle" font-size="18" fill="#713f12">192.168.0.0/16 → DXGW attachment</text><rect x="1350" y="820" width="200" height="100" rx="18" fill="#dcfce7" stroke="#16a34a" stroke-width="3"/><text x="1450" y="862" text-anchor="middle" font-size="21" font-weight="700" fill="#166534">VPC-A</text><text x="1450" y="894" text-anchor="middle" font-size="19" fill="#166534">10.10.0.0/16</text><rect x="1620" y="820" width="200" height="100" rx="18" fill="#dcfce7" stroke="#16a34a" stroke-width="3"/><text x="1720" y="862" text-anchor="middle" font-size="21" font-weight="700" fill="#166534">VPC-B</text><text x="1720" y="894" text-anchor="middle" font-size="19" fill="#166534">10.20.0.0/16</text><path d="M290 390 H350" fill="none" stroke="#2563eb" stroke-width="4" marker-end="url(#blue)"/><path d="M560 390 H630" fill="none" stroke="#d97706" stroke-width="4" marker-end="url(#orange)"/><path d="M860 390 H930" fill="none" stroke="#ea580c" stroke-width="4" marker-end="url(#orange)"/><path d="M1150 390 H1220" fill="none" stroke="#7e22ce" stroke-width="4" marker-end="url(#purple)"/><path d="M1470 390 H1510" fill="none" stroke="#6d28d9" stroke-width="4" marker-end="url(#purple)"/><path d="M1630 475 V560" fill="none" stroke="#ca8a04" stroke-width="4" marker-end="url(#gold)"/><path d="M1570 740 V775 H1450 V820" fill="none" stroke="#16a34a" stroke-width="4" marker-end="url(#green)"/><path d="M1680 740 V775 H1720 V820" fill="none" stroke="#16a34a" stroke-width="4" marker-end="url(#green)"/><text x="320" y="370" text-anchor="middle" font-size="16" font-weight="700" fill="#1d4ed8">Ethernet</text><text x="595" y="370" text-anchor="middle" font-size="16" font-weight="700" fill="#92400e">DX handoff</text><text x="895" y="370" text-anchor="middle" font-size="16" font-weight="700" fill="#9a3412">802.1Q + BGP</text><text x="1185" y="370" text-anchor="middle" font-size="16" font-weight="700" fill="#581c87">VIF terminates</text><text x="1490" y="370" text-anchor="middle" font-size="15" font-weight="700" fill="#4c1d95">Association</text></g></svg>